<?xml version="1.0" standalone="no"?><!DOCTYPE svg PUBLIC "-//W3C//DTD SVG 1.1//EN" "http://www.w3.org/Graphics/SVG/1.1/DTD/svg11.dtd"><svg t="1640620612560" class="icon" viewBox="0 0 1024 1024" version="1.1" xmlns="http://www.w3.org/2000/svg" p-id="4948" xmlns:xlink="http://www.w3.org/1999/xlink" width="200" height="200"><defs><style type="text/css"></style></defs><path d="M899.072 687.104c31.744-31.744 0-126.976-31.744-148.48-31.744-21.504-21.504-53.248-21.504-53.248 126.976-74.752 31.744-223.232-31.744-148.48-63.488 74.752-74.752 53.248-74.752 53.248C612.352 315.392 559.104 348.16 474.112 348.16s-41.984-53.248-41.984-53.248c95.232-31.744 53.248-106.496 41.984-126.976-10.24-21.504-41.984 31.744-53.248-63.488-10.24-95.232-116.736-74.752-116.736-41.984S272.384 81.92 272.384 81.92c0-21.504-10.24-31.744-10.24-31.744C102.4 18.432 144.384 155.648 144.384 155.648c0 53.248-31.744 63.488-31.744 63.488-138.24 106.496-63.488 244.736 10.24 254.976 74.752 10.24 138.24-74.752 138.24-74.752-10.24 41.984 31.744 53.248 31.744 53.248C165.888 527.36 197.632 686.08 197.632 686.08c-63.488-21.504-74.752 31.744-74.752 31.744C133.12 844.8 314.368 962.56 516.096 983.04 718.848 1005.568 930.816 857.088 962.56 772.096c31.744-84.992-63.488-84.992-63.488-84.992zM323.584 813.056c260.096-284.672 457.728 0 457.728 0-185.344 123.904-457.728 0-457.728 0z" fill="#FF79AB" p-id="4949"></path><path d="M484.352 393.216v137.216c0 6.144 2.048 11.264 5.12 16.384 24.576 36.864 136.192 184.32 257.024-21.504 3.072-4.096 4.096-9.216 4.096-14.336v-94.208c0-10.24-5.12-18.432-13.312-24.576-29.696-19.456-105.472-62.464-201.728-53.248-28.672 1.024-51.2 25.6-51.2 54.272zM262.144 246.784c0 32.768-26.624 58.368-58.368 58.368-32.768 0-58.368-26.624-58.368-58.368 0-32.768 26.624-58.368 58.368-58.368s58.368 25.6 58.368 58.368z" fill="#FFE422" p-id="4950"></path><path d="M262.144 257.024c0 20.48-16.384 36.864-36.864 36.864s-36.864-16.384-36.864-36.864 16.384-36.864 36.864-36.864c19.456 0 36.864 16.384 36.864 36.864z" fill="#5C676F" p-id="4951"></path></svg>